<?xml version="1.0" standalone="no"?>
<!DOCTYPE svg PUBLIC "-//W3C//DTD SVG 20010904//EN"
 "http://www.w3.org/TR/2001/REC-SVG-20010904/DTD/svg10.dtd">
<svg version="1.0" xmlns="http://www.w3.org/2000/svg"
 width="1579.000000pt" height="1579.000000pt" viewBox="0 0 1579.000000 1579.000000"
 preserveAspectRatio="xMidYMid meet">
<metadata>
Created by potrace 1.14, written by Peter Selinger 2001-2017
</metadata>
<g transform="translate(0.000000,1579.000000) scale(0.100000,-0.100000)"
fill="#000000" stroke="none">
<path d="M7890 10513 l0 -1330 88 -7 c48 -4 122 -14 166 -22 43 -8 79 -14 81
-12 5 5 345 1292 342 1294 -1 2 -62 15 -135 30 -108 22 -131 30 -128 43 11 39
199 1281 195 1285 -12 12 -269 37 -431 43 l-178 6 0 -1330z"/>
<path d="M7170 11779 c-198 -41 -476 -114 -492 -128 -6 -5 274 -885 391 -1233
9 -25 8 -27 -67 -53 -43 -15 -128 -50 -190 -77 -62 -28 -114 -49 -116 -47 -2
2 -137 266 -301 586 l-297 582 -59 -29 c-174 -89 -474 -286 -461 -304 5 -6
183 -251 396 -543 l388 -533 47 34 c25 18 76 52 113 74 l67 41 322 -557 c177
-306 327 -563 333 -570 9 -9 29 -4 91 27 44 21 113 49 152 62 54 18 72 28 68
39 -50 164 -334 1255 -328 1260 4 5 60 19 123 31 63 13 119 26 123 29 6 5
-178 1208 -198 1298 -6 25 -27 27 -105 11z"/>
<path d="M9107 11643 c-7 -11 -407 -1252 -407 -1261 0 -4 42 -23 93 -41 50
-18 134 -53 186 -77 52 -24 95 -43 96 -42 6 8 605 1190 605 1193 0 13 -256
126 -434 191 -128 47 -132 48 -139 37z"/>
<path d="M9825 10564 c-209 -289 -383 -528 -386 -530 -4 -2 -56 27 -115 66
-60 39 -112 69 -116 68 -8 -3 -668 -1145 -668 -1157 0 -4 30 -26 66 -50 36
-24 95 -68 131 -99 l66 -56 940 944 941 944 -75 69 c-137 127 -381 328 -398
327 -3 -1 -177 -237 -386 -526z"/>
<path d="M5000 10581 c-89 -96 -272 -318 -291 -353 -8 -14 72 -76 501 -387
281 -204 519 -377 530 -383 11 -7 20 -16 20 -20 0 -3 -32 -57 -71 -118 -40
-61 -70 -112 -68 -114 10 -9 1152 -666 1158 -666 3 0 24 28 45 62 22 34 66 93
99 131 l60 69 -939 939 c-516 516 -942 939 -946 939 -3 0 -48 -45 -98 -99z"/>
<path d="M10542 9824 l-541 -395 33 -47 c19 -26 52 -77 74 -113 l40 -67 -556
-322 c-307 -178 -563 -328 -570 -335 -11 -9 -6 -27 26 -91 22 -43 50 -112 63
-152 17 -54 27 -71 38 -67 194 58 1255 335 1261 329 5 -5 20 -62 33 -126 13
-65 25 -120 28 -122 3 -3 160 19 350 50 189 30 472 75 629 99 387 61 344 47
336 109 -15 113 -117 518 -136 539 -6 7 -346 -101 -1187 -377 l-71 -24 -27 77
c-15 42 -50 127 -77 189 -28 62 -49 114 -47 116 2 2 265 137 584 301 319 163
581 299 583 300 11 10 -289 502 -317 520 -5 2 -252 -173 -549 -391z"/>
<path d="M4324 9584 c-83 -180 -190 -461 -179 -472 5 -6 1255 -412 1266 -412
4 0 21 41 39 92 17 51 52 135 76 187 24 52 43 95 42 97 -5 5 -1162 593 -1180
599 -15 6 -26 -11 -64 -91z"/>
<path d="M5331 8463 c-13 -59 -26 -119 -29 -133 l-7 -26 -650 102 c-357 56
-651 101 -652 101 -8 -9 -35 -300 -40 -439 l-6 -178 1330 0 1330 0 7 88 c4 48
14 122 22 166 8 43 14 80 12 81 -3 3 -1194 322 -1269 340 -26 6 -26 6 -48
-102z"/>
<path d="M9175 7808 c-3 -46 -13 -118 -21 -162 -9 -43 -14 -79 -12 -81 6 -6
1290 -346 1293 -343 2 2 16 62 31 134 25 121 28 130 48 127 54 -10 1281 -200
1283 -199 8 7 35 298 40 434 l6 172 -1330 0 -1330 0 -8 -82z"/>
<path d="M6016 7388 c-346 -93 -632 -166 -637 -161 -4 4 -19 61 -32 125 -13
65 -25 120 -28 123 -6 6 -1308 -201 -1316 -209 -19 -19 120 -596 144 -596 5 0
774 251 1135 369 l116 39 27 -77 c15 -42 50 -127 77 -189 28 -62 49 -114 47
-116 -2 -2 -265 -137 -584 -301 -319 -164 -581 -299 -583 -300 -9 -8 165 -303
255 -433 64 -92 65 -93 88 -78 23 15 971 707 1032 753 l32 25 -33 46 c-19 26
-52 77 -74 113 l-40 66 565 328 c310 181 566 332 569 336 2 5 -13 43 -34 86
-22 43 -50 111 -63 151 -12 39 -25 72 -28 71 -4 0 -289 -77 -635 -171z"/>
<path d="M8967 7191 c-21 -32 -65 -92 -99 -131 l-60 -73 942 -941 941 -941 86
90 c81 86 284 331 304 367 8 14 -70 75 -503 389 -282 204 -522 380 -532 390
-20 18 -19 19 11 61 40 57 115 179 111 183 -9 8 -1151 665 -1157 665 -3 0 -23
-27 -44 -59z"/>
<path d="M10340 6998 c-18 -51 -52 -135 -76 -187 -24 -52 -43 -95 -42 -96 8
-7 1186 -605 1192 -605 25 0 247 554 229 570 -5 4 -93 34 -198 68 -104 33
-385 124 -624 201 -239 78 -438 141 -441 141 -4 0 -22 -42 -40 -92z"/>
<path d="M6045 6039 l-940 -940 75 -71 c134 -127 395 -338 403 -327 2 2 169
234 372 514 202 281 376 519 386 529 18 20 19 19 61 -11 58 -41 179 -115 183
-111 8 8 665 1152 665 1157 0 4 -30 26 -66 50 -36 24 -94 67 -129 97 -35 30
-65 54 -67 54 -2 0 -426 -423 -943 -941z"/>
<path d="M8445 6739 c-44 -22 -110 -49 -148 -61 -50 -17 -66 -26 -63 -37 3 -9
80 -295 171 -635 121 -450 163 -621 154 -626 -14 -9 -202 -50 -229 -50 -11 0
-20 -3 -20 -7 -2 -24 205 -1310 211 -1317 22 -26 607 118 596 147 -8 21 -369
1130 -387 1189 l-18 56 62 22 c33 12 118 47 189 77 70 31 129 54 131 52 2 -2
137 -266 301 -586 l298 -582 61 31 c165 83 470 283 459 301 -4 7 -182 252
-396 545 l-389 532 -46 -34 c-26 -18 -77 -52 -114 -74 l-67 -41 -105 182
c-411 710 -553 951 -562 953 -5 1 -45 -15 -89 -37z"/>
<path d="M7395 6018 c-93 -348 -170 -640 -172 -649 -4 -13 15 -20 104 -38 59
-12 120 -25 134 -29 l26 -7 -98 -625 c-54 -344 -98 -637 -98 -651 -1 -25 2
-26 87 -38 151 -19 303 -31 415 -31 l107 0 0 1329 0 1328 -87 7 c-49 4 -119
14 -158 22 -38 7 -75 14 -81 14 -6 0 -86 -283 -179 -632z"/>
<path d="M6415 4979 c-165 -325 -301 -594 -303 -600 -9 -24 550 -252 569 -232
7 8 409 1248 409 1262 0 5 -42 23 -92 41 -51 18 -135 53 -187 77 -51 23 -94
43 -95 43 0 0 -136 -266 -301 -591z"/>
</g>
</svg>
